<?xml version="1.0" encoding="utf-8"?>
<!-- Generator: Adobe Illustrator 22.1.0, SVG Export Plug-In . SVG Version: 6.00 Build 0)  -->
<svg version="1.1" id="Layer_1" xmlns="http://www.w3.org/2000/svg" xmlns:xlink="http://www.w3.org/1999/xlink" x="0px" y="0px"
	 viewBox="0 0 682.7 682.7" style="enable-background:new 0 0 682.7 682.7;" xml:space="preserve">
<style type="text/css">
	.st0{fill:url(#SVGID_1_);}
	.st1{fill:#FFFFFF;}
</style>
<linearGradient id="SVGID_1_" gradientUnits="userSpaceOnUse" x1="75.4962" y1="98.3775" x2="575.9299" y2="555.7375">
	<stop  offset="0" style="stop-color:#1976D2"/>
	<stop  offset="1" style="stop-color:#01579B"/>
</linearGradient>
<path class="st0" d="M632.7,682.7H49.9C22.5,682.7,0,660.2,0,632.7V49.9C0,22.5,22.5,0,49.9,0h582.8c27.5,0,49.9,22.5,49.9,49.9
	v582.8C682.7,660.2,660.2,682.7,632.7,682.7z"/>
<g>
	<g>
		<path class="st1" d="M213.1,626.5c-19.3,0-36.2-4.1-50.7-12.3c-14.5-8.2-25.9-19.7-34.3-34.5v42H61V269.1h77.3v140.5
			c8.4-14.5,19.6-25.8,33.6-34c14-8.2,30.5-12.3,49.5-12.3c16.1,0,30.9,3.5,44.4,10.4c13.5,6.9,25.1,16.3,34.8,28.3
			c9.7,11.9,17.2,26,22.7,42.2c5.5,16.3,8.2,33.6,8.2,51.9c0,18.4-3,35.5-8.9,51.4c-6,15.9-14.2,29.8-24.9,41.5
			C287,600.8,274.5,610,260,616.6C245.5,623.2,229.9,626.5,213.1,626.5z M191.4,561.3c9,0,17.2-1.7,24.6-5.1
			c7.4-3.4,13.8-8,19.1-13.8c5.3-5.8,9.5-12.6,12.6-20.5c3.1-7.9,4.6-16.5,4.6-25.8c0-9-1.5-17.6-4.3-25.8
			c-2.9-8.2-6.9-15.4-11.8-21.5c-5-6.1-11-10.9-18.1-14.5c-7.1-3.6-14.7-5.3-22.7-5.3c-12.2,0-23.4,4.2-33.6,12.6
			c-10.1,8.4-18,18.8-23.4,31.4V526c5.1,10.9,12.6,19.6,22.5,25.8C170.5,558.2,180.8,561.3,191.4,561.3z"/>
	</g>
	<g>
		<path class="st1" d="M540.6,621.7l-66.2-101.9l-27,28v73.9h-77.3V269.1h77.3v204.3l85.5-105.3h82.1l-91.3,109.1l99,144.4H540.6z"
			/>
	</g>
</g>
</svg>
